<?xml version="1.0" encoding="UTF-8" standalone="no"?>
<svg
   width="512"
   height="512"
   version="1.1"
   id="svg20"
   xmlns="http://www.w3.org/2000/svg"
   xmlns:svg="http://www.w3.org/2000/svg">
  <defs
     id="defs24" />
  <path
     fill="#000000"
     stroke="#000000"
     stroke-width="1"
     opacity="0.952941"
     d="m 248.5,1 h 15 v 0 h 8 l 10,2 c 10.06667,2.6 19.06667,6.2666667 27,11 l 136,77 c 10.73333,6.266667 19.9,14.1 27.5,23.5 6.4,7.93333 11.73333,16.93333 16,27 l 4,12 3,17 -1.0109,169.97611 L 494,341.5 v 7 l -2,10 c -2.66667,9.66667 -6.33333,18.33333 -11,26 -6.13333,10.2 -13.63333,19.03333 -22.5,26.5 l -19,13 -143,80 -14,5 -10.05776,1.48224 -26.32346,-0.085 L 229.5,509 c -9.66667,-2.66667 -18.33333,-6.33333 -26,-11 L 67.5,421 C 56.9,414.6 47.733333,406.76667 40,397.5 33.6,389.56667 28.266667,380.56667 24,370.5 l -5,-16 -1,-12 -0.02864,-1.07331 L 17,170.5 l 3,-17 c 2.666667,-9.66667 6.333333,-18.33333 11,-26 6,-10.33333 13.5,-19.16667 22.5,-26.5 l 14,-10 136,-77 20,-9 11,-3 z m 0.5,16 -16,3 -19,8 -136,77 -13,9 c -7.333333,6 -13.666667,13.33333 -19,22 L 35.989103,156.97611 34,173 34.934708,339.94502 35,341 l 1,11 4,13 c 3.333333,8.66667 8,16.33333 14,23 l 19,16 141,80 16,7 21,4 19,-1 21,-6 144,-81 13,-9 c 6.66667,-6 12.66667,-13 18,-21 l 9,-21 3,-16 v -167 -0.5 l -2,-11.5 -4,-13 c -3.33333,-9.33333 -8,-17 -14,-23 L 440,108 301,29 c -7.33333,-4.666667 -15.66667,-8 -25,-10 l -12,-2 v 0 z"
     id="path2" />
  <path
     fill="rgb(0,0,0)"
     stroke="rgb(0,0,0)"
     stroke-width="1"
     opacity="0.9529411764705882"
     d="M 246.5 43 L 265.5 43 L 285.5 50 L 421.5 127 Q 431.9 132.7 439 141.5 Q 448.7 152.8 452 170.5 L 452 341.5 Q 447.3 365.3 431.5 378 L 421.5 385 L 281.5 464 L 265.5 469 L 246.5 469 L 226.5 462 L 104.5 393 L 84.5 381 L 73 370.5 Q 63.3 359.2 60 341.5 L 60 170.5 Q 64.7 146.7 80.5 134 L 90.5 127 L 226.5 50 L 246.5 43 Z M 249 60 L 237 64 L 92 147 Q 80 156 77 173 L 77 340 Q 80 352 87 361 L 99 370 L 237 448 L 249 452 L 264 452 L 276 448 L 421 365 Q 432 356 435 340 L 435 173 Q 432 160 425 152 L 414 142 L 278 65 L 264 60 L 249 60 Z "
     id="path4" />
  <path
     fill="rgb(0,0,0)"
     stroke="rgb(0,0,0)"
     stroke-width="1"
     opacity="0.9529411764705882"
     d="M 117.5 179 Q 125.4 178.1 127 183.5 L 178.5 287 L 179 186.5 L 183.5 180 L 189.5 179 L 194 181 L 196 184.5 L 196 327.5 L 194 331 Q 191.7 333.6 185.5 333 L 180 328.5 L 128.5 225 L 128 326.5 L 123.5 332 L 117.5 333 L 112 328.5 L 111 326.5 L 111 185.5 L 115.5 180 L 117.5 179 Z "
     id="path6" />
  <path
     fill="rgb(0,0,0)"
     stroke="rgb(0,0,0)"
     stroke-width="1"
     opacity="0.9529411764705882"
     d="M 228.5 179 L 300.5 179 L 307 184.5 Q 308.3 192.8 303.5 195 L 301.5 196 L 239 196 L 239 247 L 273.5 247 L 280 250.5 L 282 256.5 L 278.5 263 L 273.5 265 L 239 265 L 239 326.5 L 234.5 332 L 228.5 333 L 223 328.5 L 222 326.5 L 222 185.5 L 226.5 180 L 228.5 179 Z "
     id="path8" />
  <path
     fill="rgb(0,0,0)"
     stroke="rgb(0,0,0)"
     stroke-width="1"
     opacity="0.9529411764705882"
     d="M 322.5 179 L 394.5 179 L 400 183.5 L 401 190.5 L 397.5 195 L 395.5 196 L 367 196 L 367 326.5 L 362.5 332 L 356.5 333 L 351 328.5 L 350 326.5 L 350 196 L 321.5 196 L 317 192.5 L 316 184.5 L 318 181 L 322.5 179 Z "
     id="path10" />
  <path
     fill="rgb(0,0,0)"
     stroke="rgb(0,0,0)"
     stroke-width="1"
     opacity="0"
     d="M 0 0 L 249 0.5 L 234.5 2 L 223.5 5 L 203.5 14 L 67.5 91 Q 51.6 100.6 40 114.5 Q 30.4 126.4 24 141.5 L 19 157.5 L 18 169.5 L 17 170.5 L 17 341.5 L 20 358.5 Q 24 373 31 384.5 Q 40 400 53.5 411 L 67.5 421 L 203.5 498 Q 215 505 229.5 509 L 246 511.5 L 0 512 L 0 0 Z M 118 179 L 116 180 L 111 186 L 111 327 L 112 329 L 118 333 L 124 332 L 128 327 L 129 225 L 180 329 L 186 333 Q 192 334 194 331 L 196 328 L 196 185 L 194 181 L 190 179 L 184 180 L 179 187 L 179 287 L 127 184 Q 125 178 118 179 Z "
     id="path12" />
  <path
     fill="rgb(0,0,0)"
     stroke="rgb(0,0,0)"
     stroke-width="1"
     opacity="0"
     d="M 263.5 0 L 512 0 L 512 512 L 266 511.5 L 282.5 509 L 308.5 498 L 444.5 421 Q 459.8 411.8 471 398.5 Q 481.6 386.6 488 370.5 L 492 358.5 L 494 348.5 L 494 341.5 L 495 340.5 L 495 170.5 L 492 153.5 Q 488 139 481 127.5 Q 471.6 111.4 457.5 100 L 444.5 91 L 308.5 14 L 288.5 5 L 271.5 1 L 263.5 1 L 263.5 0 Z M 323 179 L 318 181 L 316 185 L 317 193 L 322 196 L 350 196 L 350 327 L 351 329 L 357 333 L 363 332 L 367 327 L 367 196 L 396 196 L 398 195 L 401 191 L 400 184 L 395 179 L 323 179 Z "
     id="path14" />
  <path
     fill="rgb(0,0,0)"
     stroke="rgb(0,0,0)"
     stroke-width="1"
     opacity="0"
     d="M 248.5 17 L 263.5 17 L 264.5 18 L 275.5 19 Q 289.5 22.5 300.5 29 L 439.5 108 L 458 124.5 Q 466.6 134.4 472 147.5 L 476 160.5 L 477 171.5 L 478 172.5 L 478 339.5 L 475 355.5 L 466 376.5 Q 458.3 388.8 447.5 398 L 434.5 407 L 290.5 488 L 269.5 494 L 250.5 495 L 229.5 491 L 213.5 484 L 72.5 404 L 54 387.5 Q 45.4 377.6 40 364.5 L 36 351.5 L 35 340.5 L 34 339.5 L 34 172.5 L 37 156.5 L 46 135.5 Q 53.7 123.2 64.5 114 L 77.5 105 L 213.5 28 L 232.5 20 L 248.5 17 Z M 247 43 L 227 50 L 91 127 L 81 134 Q 65 147 60 171 L 60 342 Q 63 359 73 371 L 85 381 L 105 393 L 227 462 L 247 469 L 266 469 L 282 464 L 422 385 L 432 378 Q 447 365 452 342 L 452 171 Q 449 153 439 142 Q 432 133 422 127 L 286 50 L 266 43 L 247 43 Z "
     id="path16" />
  <path
     fill="rgb(0,0,0)"
     stroke="rgb(0,0,0)"
     stroke-width="1"
     opacity="0"
     d="M 248.5 60 L 263.5 60 L 277.5 65 L 413.5 142 L 425 151.5 Q 432.5 159.5 435 172.5 L 435 339.5 Q 431.5 356 420.5 365 L 275.5 448 L 263.5 452 L 248.5 452 L 236.5 448 L 98.5 370 L 87 360.5 Q 79.5 352.5 77 339.5 L 77 172.5 Q 80.5 156 91.5 147 L 236.5 64 L 248.5 60 Z M 229 179 L 227 180 L 222 186 L 222 327 L 223 329 L 229 333 L 235 332 L 239 327 L 239 265 L 274 265 L 279 263 L 282 257 L 280 251 L 274 247 L 239 247 L 239 196 L 302 196 L 304 195 Q 308 193 307 185 L 301 179 L 229 179 Z "
     id="path18" />
</svg>
