<?xml version="1.0" encoding="UTF-8"?>
<svg version="1.1" viewBox="0 0 512 512" xmlns="http://www.w3.org/2000/svg" xmlns:xlink="http://www.w3.org/1999/xlink">
<defs>
<linearGradient id="a" x2="508.99" y2="445.61" gradientUnits="userSpaceOnUse">
<stop stop-color="#2b0000" offset="0"/>
<stop stop-color="#b3bc00" stop-opacity=".125" offset="1"/>
</linearGradient>
<linearGradient id="e" x1="508.99" x2="508.71" y1="445.61" y2="444.84" gradientUnits="userSpaceOnUse">
<stop stop-color="#b3bc00" stop-opacity=".125" offset="0"/>
<stop stop-color="#7e4c00" stop-opacity=".5" offset="1"/>
</linearGradient>
<linearGradient id="c" x1="508.71" x2="508.99" y1="444.84" y2="445.61" gradientUnits="userSpaceOnUse">
<stop stop-color="#7e4c00" stop-opacity=".5" offset="0"/>
<stop stop-color="#b3bc00" stop-opacity=".125" offset="1"/>
</linearGradient>
<linearGradient id="d" x2="508.71" y2="444.84" gradientUnits="userSpaceOnUse">
<stop offset="0"/>
<stop stop-color="#7e4c00" stop-opacity=".5" offset="1"/>
</linearGradient>
<linearGradient id="b" x2="508.99" y2="445.61" gradientUnits="userSpaceOnUse">
<stop offset="0"/>
<stop stop-color="#b3bc00" stop-opacity=".125" offset="1"/>
</linearGradient>
</defs>
<path d="m248.5 1h23l10 2c10.067 2.6 19.067 6.2667 27 11l136 77c10.733 6.2667 19.9 14.1 27.5 23.5 6.4 7.9333 11.733 16.933 16 27l4 12 3 17-1.0109 169.98 0.0109 1.0239v7l-2 10c-2.6667 9.6667-6.3333 18.333-11 26-6.1333 10.2-13.633 19.033-22.5 26.5l-19 13-143 80-14 5-10.058 1.4822-26.323-0.085-16.619-1.3972c-9.6667-2.6667-18.333-6.3333-26-11l-136-77c-10.6-6.4-19.767-14.233-27.5-23.5-6.4-7.9333-11.733-16.933-16-27l-5-16-1-12-0.02864-1.0733-0.97136-170.93 3-17c2.6667-9.6667 6.3333-18.333 11-26 6-10.333 13.5-19.167 22.5-26.5l14-10 136-77 20-9 11-3zm0.5 16-16 3-19 8-136 77-13 9c-7.3333 6-13.667 13.333-19 22l-10.011 20.976-1.9891 16.024 0.93471 166.95 0.065292 1.055 1 11 4 13c3.3333 8.6667 8 16.333 14 23l19 16 141 80 16 7 21 4 19-1 21-6 144-81 13-9c6.6667-6 12.667-13 18-21l9-21 3-16v-167.5l-2-11.5-4-13c-3.3333-9.3333-8-17-14-23l-18-17-139-79c-7.3333-4.6667-15.667-8-25-10l-12-2z" fill="url(#a)" opacity=".95294" stroke="#000" stroke-opacity="0"/>
<path d="m246.5 43h19l20 7 136 77q10.4 5.7 17.5 14.5 9.7 11.3 13 29v171q-4.7 23.8-20.5 36.5l-10 7-140 79-16 5h-19l-20-7-122-69-20-12-11.5-10.5q-9.7-11.3-13-29v-171q4.7-23.8 20.5-36.5l10-7 136-77 20-7zm2.5 17-12 4-145 83q-12 9-15 26v167q3 12 10 21l12 9 138 78 12 4h15l12-4 145-83q11-9 14-25v-167q-3-13-10-21l-11-10-136-77-14-5h-15z" fill="url(#a)" opacity=".95294" stroke="#000" stroke-opacity="0"/>
<path d="m117.5 179q7.9-0.9 9.5 4.5l51.5 103.5 0.5-100.5 4.5-6.5 6-1 4.5 2 2 3.5v143l-2 3.5q-2.3 2.6-8.5 2l-5.5-4.5-51.5-103.5-0.5 101.5-4.5 5.5-6 1-5.5-4.5-1-2v-141l4.5-5.5 2-1z" fill="url(#a)" opacity=".95294" stroke="#000" stroke-opacity="0"/>
<path d="m228.5 179h72l6.5 5.5q1.3 8.3-3.5 10.5l-2 1h-62.5v51h34.5l6.5 3.5 2 6-3.5 6.5-5 2h-34.5v61.5l-4.5 5.5-6 1-5.5-4.5-1-2v-141l4.5-5.5 2-1z" fill="url(#e)" opacity=".95294" stroke="#000" stroke-opacity="0"/>
<path d="m322.5 179h72l5.5 4.5 1 7-3.5 4.5-2 1h-28.5v130.5l-4.5 5.5-6 1-5.5-4.5-1-2v-130.5h-28.5l-4.5-3.5-1-8 2-3.5 4.5-2z" fill="url(#c)" opacity=".95294" stroke="#000" stroke-opacity="0"/>
<path d="m0 0 249 0.5-14.5 1.5-11 3-20 9-136 77q-15.9 9.6-27.5 23.5-9.6 11.9-16 27l-5 16-1 12-1 1v171l3 17q4 14.5 11 26 9 15.5 22.5 26.5l14 10 136 77q11.5 7 26 11l16.5 2.5-246 0.5v-512zm118 179-2 1-5 6v141l1 2 6 4 6-1 4-5 1-102 51 104 6 4q6 1 8-2l2-3v-143l-2-4-4-2-6 1-5 7v100l-52-103q-2-6-9-5z" fill="url(#d)" opacity="0" stroke="#000" stroke-opacity="0"/>
<path d="m263.5 0h248.5v512l-246-0.5 16.5-2.5 26-11 136-77q15.3-9.2 26.5-22.5 10.6-11.9 17-28l4-12 2-10v-7l1-1v-170l-3-17q-4-14.5-11-26-9.4-16.1-23.5-27.5l-13-9-136-77-20-9-17-4h-8v-1zm59.5 179-5 2-2 4 1 8 5 3h28v131l1 2 6 4 6-1 4-5v-131h29l2-1 3-4-1-7-5-5h-72z" fill="url(#c)" opacity="0" stroke="#000" stroke-opacity="0"/>
<path d="m248.5 17h15l1 1 11 1q14 3.5 25 10l139 79 18.5 16.5q8.6 9.9 14 23l4 13 1 11 1 1v167l-3 16-9 21q-7.7 12.3-18.5 21.5l-13 9-144 81-21 6-19 1-21-4-16-7-141-80-18.5-16.5q-8.6-9.9-14-23l-4-13-1-11-1-1v-167l3-16 9-21q7.7-12.3 18.5-21.5l13-9 136-77 19-8 16-3zm-1.5 26-20 7-136 77-10 7q-16 13-21 37v171q3 17 13 29l12 10 20 12 122 69 20 7h19l16-5 140-79 10-7q15-13 20-36v-171q-3-18-13-29-7-9-17-15l-136-77-20-7h-19z" fill="url(#b)" opacity="0" stroke="#000" stroke-opacity="0"/>
<path d="m248.5 60h15l14 5 136 77 11.5 9.5q7.5 8 10 21v167q-3.5 16.5-14.5 25.5l-145 83-12 4h-15l-12-4-138-78-11.5-9.5q-7.5-8-10-21v-167q3.5-16.5 14.5-25.5l145-83 12-4zm-19.5 119-2 1-5 6v141l1 2 6 4 6-1 4-5v-62h35l5-2 3-6-2-6-6-4h-35v-51h63l2-1q4-2 3-10l-6-6h-72z" fill="url(#b)" opacity="0" stroke="#000" stroke-opacity="0"/>
</svg>
